<svg xmlns="http://www.w3.org/2000/svg" viewBox="0 0 142.875 84.667" height="320" width="540"><path d="M21.977 14.669c-3.863-.007-5.791.362-8.373 1.6-3.853 1.849-6.71 5.31-7.835 9.487-.917 3.411-.918 30.084 0 33.495 1.39 5.163 6.2 9.868 10.846 10.608.677.108 3.492.165 6.255.127 4.448-.061 5.177-.123 6.35-.543 4.02-1.438 7.42-4.816 8.993-8.934.485-1.271.595-2.052.774-5.501.236-4.566.03-26.488-.27-28.694-.13-.946-.523-2.111-1.131-3.349-.76-1.546-1.312-2.275-2.971-3.926-3.44-3.42-6.154-4.36-12.638-4.37zm-3.462 4.446c1.185-.014 2.252.34 2.888 1.043.501.554.825.554 1.326 0 1.12-1.238 3.372-1.386 5.595-.369 2.658 1.217 3.568 4.402 2.126 7.448-.791 1.673-1.74 2.414-4.869 3.805-1.182.525-2.46 1.191-2.838 1.48l-.69.527-.663-.53c-.365-.292-1.63-.944-2.812-1.449-3.861-1.65-5.335-3.292-5.517-6.144-.154-2.417.735-4.145 2.624-5.102a6.51 6.51 0 012.83-.709zM30.24 34.543h.097c.19.004.377.028.554.076 1.911.515 2.82 2.58 1.84 4.186-.831 1.365-2.403 1.914-3.745 1.311-1.43-.643-2.05-2.674-1.273-4.176.418-.807 1.52-1.381 2.526-1.397zM19.62 35.97c.833 0 9.526 5.169 9.903 5.888.511.975.193 1.66-1.86 4.004-1.055 1.203-1.877 2.229-1.827 2.279.05.05 1.579-.004 3.397-.12 3.516-.222 3.891-.159 4.492.758.3.457.288 1.067-.11 5.742-.43 5.08-.46 5.244-1.017 5.732-.746.654-1.55.638-2.233-.045-.638-.638-.65-.92-.245-5.554.149-1.698.187-3.138.085-3.201-.102-.063-.69-.045-1.307.04-.919.126-1.095.22-.978.521.9 2.309.948 4.804.132 6.951-.445 1.173-1.514 2.907-1.79 2.907-.08 0-.615-.477-1.188-1.06l-1.042-1.061.437-.558c.706-.903 1.176-2.806 1.006-4.08-.573-4.322-4.972-6.674-8.794-4.702l-1.337.69-1.063-1.08-1.063-1.08.54-.443c.72-.591 2.597-1.498 3.502-1.691.562-.12 1.244-.74 2.991-2.717 1.663-1.882 2.197-2.627 2.014-2.81-.136-.137-.723-.526-1.303-.864l-1.055-.616-1.748 1.543c-2.02 1.783-2.632 2.026-3.49 1.388-.439-.326-.612-.674-.661-1.327-.064-.85 0-.945 1.674-2.437 3.027-2.697 3.42-2.997 3.938-2.997zm-7.584 14.383c.19-.02.633.298 1.235.89l1.092 1.076-.461 1.036c-.646 1.451-.627 3.373.047 4.897 1.35 3.05 5.126 4.45 8.073 2.991l.846-.418 1.045 1.06c.58.59.976 1.17.891 1.309-.232.376-1.884 1.166-3.137 1.5-1.426.382-3.022.363-4.578-.054-4.561-1.22-7.547-5.82-6.714-10.343.246-1.34 1.083-3.39 1.596-3.915a.103.103 0 01.065-.03z" fill="#069568" paint-order="fill markers stroke"><animateTransform attributeName="transform" dur=".5" type="translate" values="0 30 ; 0 -30; 0 30" repeatCount="indefinite" begin=".1"/></path><path d="M71.516 14.669c-3.863-.007-5.791.362-8.373 1.6-3.853 1.849-6.71 5.31-7.834 9.487-.918 3.411-.918 30.084 0 33.495 1.389 5.163 6.2 9.868 10.845 10.608.677.108 3.492.165 6.256.127 4.447-.061 5.176-.123 6.348-.543 4.022-1.438 7.422-4.816 8.994-8.934.486-1.271.595-2.052.774-5.501.237-4.566.03-26.488-.27-28.694-.129-.946-.522-2.111-1.13-3.349-.76-1.546-1.312-2.275-2.972-3.926-3.44-3.42-6.153-4.36-12.638-4.37zm-3.461 4.446c1.184-.014 2.251.34 2.888 1.043.5.554.824.554 1.325 0 1.12-1.238 3.373-1.386 5.595-.369 2.659 1.217 3.568 4.402 2.127 7.448-.792 1.673-1.74 2.414-4.87 3.805-1.181.525-2.459 1.191-2.838 1.48l-.69.527-.663-.53c-.365-.292-1.63-.944-2.812-1.449-3.861-1.65-5.335-3.292-5.516-6.144-.154-2.417.735-4.145 2.624-5.102a6.51 6.51 0 012.83-.709zm11.723 15.428h.097c.191.004.378.028.555.076 1.91.515 2.819 2.58 1.84 4.186-.832 1.365-2.403 1.914-3.746 1.311-1.43-.643-2.05-2.674-1.273-4.176.418-.807 1.52-1.381 2.527-1.397zM69.16 35.97c.833 0 9.527 5.169 9.904 5.888.51.975.192 1.66-1.86 4.004-1.055 1.203-1.877 2.229-1.828 2.279.05.05 1.58-.004 3.398-.12 3.515-.222 3.89-.159 4.491.758.3.457.289 1.067-.109 5.742-.432 5.08-.46 5.244-1.018 5.732-.746.654-1.55.638-2.233-.045-.637-.638-.65-.92-.245-5.554.149-1.698.187-3.138.085-3.201-.102-.063-.69-.045-1.307.04-.918.126-1.095.22-.977.521.9 2.309.948 4.804.132 6.951-.446 1.173-1.515 2.907-1.792 2.907-.08 0-.614-.477-1.187-1.06l-1.042-1.061.437-.558c.707-.903 1.176-2.806 1.007-4.08-.573-4.322-4.973-6.674-8.795-4.702l-1.336.69-1.064-1.08-1.063-1.08.54-.443c.72-.591 2.597-1.498 3.502-1.691.563-.12 1.244-.74 2.992-2.717 1.662-1.882 2.196-2.627 2.014-2.81-.137-.137-.724-.526-1.304-.864l-1.054-.616-1.748 1.543c-2.021 1.783-2.633 2.026-3.49 1.388-.44-.326-.613-.674-.662-1.327-.064-.85.001-.945 1.675-2.437 3.026-2.697 3.42-2.997 3.937-2.997zm-7.584 14.383c.19-.02.634.298 1.235.89l1.092 1.076-.461 1.036c-.646 1.451-.627 3.373.047 4.897 1.35 3.05 5.126 4.45 8.074 2.991l.845-.418 1.045 1.06c.581.59.977 1.17.891 1.309-.232.376-1.884 1.166-3.137 1.5-1.426.382-3.022.363-4.578-.054-4.56-1.22-7.547-5.82-6.714-10.343.247-1.34 1.083-3.39 1.596-3.915a.103.103 0 01.065-.03z" fill="#069568" paint-order="fill markers stroke"><animateTransform attributeName="transform" dur=".5" type="translate" values="0 20 ; 0 -20; 0 20" repeatCount="indefinite" begin=".2"/></path><path d="M121.056 14.669c-3.863-.007-5.792.362-8.374 1.6-3.852 1.849-6.71 5.31-7.834 9.487-.918 3.411-.918 30.084 0 33.495 1.39 5.163 6.2 9.868 10.845 10.608.678.108 3.493.165 6.256.127 4.447-.061 5.176-.123 6.349-.543 4.021-1.438 7.421-4.816 8.994-8.934.485-1.271.595-2.052.773-5.501.237-4.566.03-26.488-.27-28.694-.129-.946-.522-2.111-1.13-3.349-.76-1.546-1.312-2.275-2.972-3.926-3.44-3.42-6.153-4.36-12.637-4.37zm-3.462 4.446c1.185-.014 2.252.34 2.888 1.043.5.554.824.554 1.325 0 1.12-1.238 3.373-1.386 5.596-.369 2.658 1.217 3.567 4.402 2.126 7.448-.792 1.673-1.74 2.414-4.87 3.805-1.181.525-2.458 1.191-2.838 1.48l-.69.527-.663-.53c-.365-.292-1.63-.944-2.812-1.449-3.86-1.65-5.335-3.292-5.516-6.144-.154-2.417.735-4.145 2.624-5.102a6.51 6.51 0 012.83-.709zm11.723 15.428h.097c.191.004.378.028.555.076 1.91.515 2.82 2.58 1.84 4.186-.832 1.365-2.403 1.914-3.746 1.311-1.43-.643-2.049-2.674-1.272-4.176.417-.807 1.52-1.381 2.526-1.397zM118.7 35.97c.834 0 9.527 5.169 9.904 5.888.51.975.192 1.66-1.86 4.004-1.055 1.203-1.877 2.229-1.827 2.279.05.05 1.578-.004 3.397-.12 3.516-.222 3.89-.159 4.492.758.3.457.288 1.067-.11 5.742-.431 5.08-.46 5.244-1.017 5.732-.746.654-1.55.638-2.234-.045-.637-.638-.65-.92-.244-5.554.148-1.698.186-3.138.084-3.201-.102-.063-.69-.045-1.306.04-.919.126-1.096.22-.978.521.9 2.309.948 4.804.132 6.951-.445 1.173-1.514 2.907-1.791 2.907-.08 0-.615-.477-1.188-1.06l-1.042-1.061.437-.558c.707-.903 1.176-2.806 1.007-4.08-.573-4.322-4.972-6.674-8.795-4.702l-1.336.69-1.063-1.08-1.063-1.08.54-.443c.72-.591 2.597-1.498 3.501-1.691.563-.12 1.245-.74 2.992-2.717 1.663-1.882 2.197-2.627 2.014-2.81-.137-.137-.723-.526-1.303-.864l-1.055-.616-1.748 1.543c-2.02 1.783-2.632 2.026-3.49 1.388-.439-.326-.612-.674-.662-1.327-.064-.85.001-.945 1.675-2.437 3.026-2.697 3.42-2.997 3.937-2.997zm-7.583 14.383c.19-.02.633.298 1.235.89l1.091 1.076-.46 1.036c-.646 1.451-.628 3.373.047 4.897 1.35 3.05 5.125 4.45 8.073 2.991l.846-.418 1.044 1.06c.581.59.977 1.17.892 1.309-.233.376-1.885 1.166-3.138 1.5-1.425.382-3.021.363-4.577-.054-4.562-1.22-7.548-5.82-6.715-10.343.247-1.34 1.083-3.39 1.596-3.915a.103.103 0 01.066-.03z" fill="#069568" paint-order="fill markers stroke"><animateTransform attributeName="transform" dur=".5" type="translate" values="0 10 ; 0 -10; 0 10" repeatCount="indefinite" begin=".3"/></path></svg>