<?xml version="1.0" encoding="UTF-8" standalone="no"?>
<svg
   xmlns:dc="http://purl.org/dc/elements/1.1/"
   xmlns:cc="http://creativecommons.org/ns#"
   xmlns:rdf="http://www.w3.org/1999/02/22-rdf-syntax-ns#"
   xmlns:svg="http://www.w3.org/2000/svg"
   xmlns="http://www.w3.org/2000/svg"
   id="svg8"
   version="1.1"
   viewBox="0 0 142.875 84.666669"
   height="320"
   width="540">
  <defs
     id="defs2" />
  <metadata
     id="metadata5">
    <rdf:RDF>
      <cc:Work
         rdf:about="">
        <dc:format>image/svg+xml</dc:format>
        <dc:type
           rdf:resource="http://purl.org/dc/dcmitype/StillImage" />
        <dc:title></dc:title>
      </cc:Work>
    </rdf:RDF>
  </metadata>
  <g
     transform="translate(0,-212.33331)"
     id="layer1">
    <g
       transform="matrix(0.30091715,0,0,0.30091715,-6.5771719,193.95531)"
       id="g7119">
      <path
         d="m 94.891,109.82 c -12.838,-0.0212 -19.246,1.2042 -27.827,5.3209 -12.802,6.1418 -22.3,17.642 -26.034,31.523 -3.05,11.337 -3.0506,99.974 -6.78e-4,111.31 4.6173,17.159 20.603,32.795 36.042,35.254 2.2507,0.35859 11.605,0.54831 20.788,0.42179 14.778998,-0.2036 17.201998,-0.41083 21.097998,-1.8048 13.364,-4.7808 24.663,-16.005 29.888,-29.69 1.613,-4.2245 1.978,-6.8202 2.5717,-18.281 0.78613,-15.173 0.10006,-88.024 -0.89798,-95.353 -0.42815,-3.144 -1.7356,-7.0182 -3.757,-11.131 -2.5243,-5.1359 -4.3594,-7.5605 -9.874,-13.046 -11.43,-11.369 -20.449,-14.488 -41.996998,-14.523 z m -11.504,14.777 c 3.9367,-0.0464 7.4824,1.1294 9.5969,3.4659 1.6646,1.8394 2.7396,1.8394 4.4043,0 3.7236,-4.1145 11.208,-4.608 18.595,-1.2263 8.834,4.0443 11.855,14.626 7.0659,24.749 -2.6306,5.5605 -5.7811,8.0228 -16.182,12.645 -3.9272,1.7454 -8.1718,3.9598 -9.4322,4.9212 l -2.2915,1.7482 -2.2048,-1.7623 c -1.2126,-0.96916 -5.4177,-3.1351 -9.3444,-4.8134 -12.831,-5.4842 -17.729,-10.939 -18.332,-20.417 -0.51145,-8.0322 2.4422,-13.776 8.72,-16.957 3.0449,-1.543 6.3433,-2.3183 9.4052,-2.3544 z m 38.958,51.268 c 0.10786,-0.003 0.21555,-0.001 0.32273,6.9e-4 0.63514,0.0132 1.2556,0.0946 1.8434,0.25286 6.3506,1.71 9.3685,8.5762 6.1149,13.912 -2.7643,4.5335 -7.9862,6.3607 -12.448,4.3554 -4.7523,-2.1361 -6.8094,-8.8876 -4.2287,-13.878 1.3872,-2.6826 5.0495,-4.5893 8.3952,-4.6431 z m -35.285,4.7453 c 2.7697,0 31.659,17.177 32.912,19.569 1.6975,3.2399 0.63926,5.5168 -6.1834,13.304 -3.5043,3.9999 -6.2358,7.4078 -6.0703,7.5734 0.16555,0.16554 5.2463,-0.0119 11.29,-0.39545 11.683,-0.74044 12.93,-0.53004 14.926,2.5152 0.99645,1.5208 0.95791,3.5456 -0.36243,19.082 -1.4346,16.88 -1.5319,17.429 -3.3823,19.05 -2.479,2.1725 -5.1517,2.1179 -7.4213,-0.15172 -2.1189,-2.119 -2.1606,-3.0584 -0.8137,-18.455 0.49357,-5.6422 0.62036,-10.43 0.28165,-10.639 -0.33871,-0.20934 -2.2927,-0.14982 -4.3421,0.13205 -3.0534,0.41994 -3.6399,0.73309 -3.2492,1.7345 2.9923,7.6707 3.1497,15.964 0.43864,23.099 -1.4804,3.8961 -5.0324,9.6602 -5.953,9.6602 -0.26593,0 -2.0414,-1.5863 -3.9456,-3.5249 l -3.4624,-3.5245 1.4518,-1.8553 c 2.3481,-3.0007 3.9077,-9.3218 3.3454,-13.56 -1.9049,-14.36 -16.524,-22.175 -29.226,-15.623 l -4.4415,2.2905 -3.533,-3.5867 -3.5326,-3.5867 1.7935,-1.4732 c 2.3937,-1.9658 8.6311,-4.9783 11.637,-5.6204 1.8705,-0.3996 4.1351,-2.4563 9.9418,-9.0287 5.5256,-6.2542 7.3003,-8.7304 6.693,-9.3378 -0.45462,-0.4546 -2.4033,-1.7474 -4.3309,-2.8731 l -3.5049,-2.0467 -5.809,5.1274 c -6.715,5.9268 -8.7473,6.7353 -11.599,4.615 -1.4574,-1.0838 -2.0341,-2.2416 -2.1974,-4.4109 -0.21283,-2.8271 0.0031,-3.1417 5.5653,-8.0995 10.056,-8.9633 11.364,-9.959 13.084,-9.959 z m -25.202,47.797 c 0.63022,-0.0658 2.1045,0.99176 4.1043,2.9616 l 3.6281,3.5734 -1.5326,3.4438 c -2.1453,4.8203 -2.0836,11.208 0.15768,16.272 4.4868,10.137 17.034,14.787 26.829,9.9408 l 2.8106,-1.3907 3.4715,3.5242 c 1.9306,1.96 3.245,3.89 2.9619,4.3481 -0.77221,1.2494 -6.2614,3.8754 -10.426,4.9879 -4.7377,1.2656 -10.041,1.2026 -15.212,-0.18085 -15.158,-4.0556 -25.082,-19.344 -22.313,-34.374 0.8198,-4.4492 3.5984,-11.265 5.3033,-13.008 0.05467,-0.0559 0.1277,-0.0883 0.21773,-0.0977 z"
         style="fill:#069568;paint-order:fill markers stroke"
         id="path7117">
         <animateTransform 
         attributeName="transform" 
         dur="1s" 
         type="translate" 
         values="0 30 ; 0 -30; 0 30" 
         repeatCount="indefinite" 
         begin="0.1"/>
        </path>
    </g>
    <g
       id="g7131"
       transform="matrix(0.30091715,0,0,0.30091715,42.962123,193.95531)">
      <path
         id="path7129"
         style="fill:#069568;paint-order:fill markers stroke"
         d="m 94.891,109.82 c -12.838,-0.0212 -19.246,1.2042 -27.827,5.3209 -12.802,6.1418 -22.3,17.642 -26.034,31.523 -3.05,11.337 -3.0506,99.974 -6.78e-4,111.31 4.6173,17.159 20.603,32.795 36.042,35.254 2.2507,0.35859 11.605,0.54831 20.788,0.42179 14.778998,-0.2036 17.201998,-0.41083 21.097998,-1.8048 13.364,-4.7808 24.663,-16.005 29.888,-29.69 1.613,-4.2245 1.978,-6.8202 2.5717,-18.281 0.78613,-15.173 0.10006,-88.024 -0.89798,-95.353 -0.42815,-3.144 -1.7356,-7.0182 -3.757,-11.131 -2.5243,-5.1359 -4.3594,-7.5605 -9.874,-13.046 -11.43,-11.369 -20.449,-14.488 -41.996998,-14.523 z m -11.504,14.777 c 3.9367,-0.0464 7.4824,1.1294 9.5969,3.4659 1.6646,1.8394 2.7396,1.8394 4.4043,0 3.7236,-4.1145 11.208,-4.608 18.595,-1.2263 8.834,4.0443 11.855,14.626 7.0659,24.749 -2.6306,5.5605 -5.7811,8.0228 -16.182,12.645 -3.9272,1.7454 -8.1718,3.9598 -9.4322,4.9212 l -2.2915,1.7482 -2.2048,-1.7623 c -1.2126,-0.96916 -5.4177,-3.1351 -9.3444,-4.8134 -12.831,-5.4842 -17.729,-10.939 -18.332,-20.417 -0.51145,-8.0322 2.4422,-13.776 8.72,-16.957 3.0449,-1.543 6.3433,-2.3183 9.4052,-2.3544 z m 38.958,51.268 c 0.10786,-0.003 0.21555,-0.001 0.32273,6.9e-4 0.63514,0.0132 1.2556,0.0946 1.8434,0.25286 6.3506,1.71 9.3685,8.5762 6.1149,13.912 -2.7643,4.5335 -7.9862,6.3607 -12.448,4.3554 -4.7523,-2.1361 -6.8094,-8.8876 -4.2287,-13.878 1.3872,-2.6826 5.0495,-4.5893 8.3952,-4.6431 z m -35.285,4.7453 c 2.7697,0 31.659,17.177 32.912,19.569 1.6975,3.2399 0.63926,5.5168 -6.1834,13.304 -3.5043,3.9999 -6.2358,7.4078 -6.0703,7.5734 0.16555,0.16554 5.2463,-0.0119 11.29,-0.39545 11.683,-0.74044 12.93,-0.53004 14.926,2.5152 0.99645,1.5208 0.95791,3.5456 -0.36243,19.082 -1.4346,16.88 -1.5319,17.429 -3.3823,19.05 -2.479,2.1725 -5.1517,2.1179 -7.4213,-0.15172 -2.1189,-2.119 -2.1606,-3.0584 -0.8137,-18.455 0.49357,-5.6422 0.62036,-10.43 0.28165,-10.639 -0.33871,-0.20934 -2.2927,-0.14982 -4.3421,0.13205 -3.0534,0.41994 -3.6399,0.73309 -3.2492,1.7345 2.9923,7.6707 3.1497,15.964 0.43864,23.099 -1.4804,3.8961 -5.0324,9.6602 -5.953,9.6602 -0.26593,0 -2.0414,-1.5863 -3.9456,-3.5249 l -3.4624,-3.5245 1.4518,-1.8553 c 2.3481,-3.0007 3.9077,-9.3218 3.3454,-13.56 -1.9049,-14.36 -16.524,-22.175 -29.226,-15.623 l -4.4415,2.2905 -3.533,-3.5867 -3.5326,-3.5867 1.7935,-1.4732 c 2.3937,-1.9658 8.6311,-4.9783 11.637,-5.6204 1.8705,-0.3996 4.1351,-2.4563 9.9418,-9.0287 5.5256,-6.2542 7.3003,-8.7304 6.693,-9.3378 -0.45462,-0.4546 -2.4033,-1.7474 -4.3309,-2.8731 l -3.5049,-2.0467 -5.809,5.1274 c -6.715,5.9268 -8.7473,6.7353 -11.599,4.615 -1.4574,-1.0838 -2.0341,-2.2416 -2.1974,-4.4109 -0.21283,-2.8271 0.0031,-3.1417 5.5653,-8.0995 10.056,-8.9633 11.364,-9.959 13.084,-9.959 z m -25.202,47.797 c 0.63022,-0.0658 2.1045,0.99176 4.1043,2.9616 l 3.6281,3.5734 -1.5326,3.4438 c -2.1453,4.8203 -2.0836,11.208 0.15768,16.272 4.4868,10.137 17.034,14.787 26.829,9.9408 l 2.8106,-1.3907 3.4715,3.5242 c 1.9306,1.96 3.245,3.89 2.9619,4.3481 -0.77221,1.2494 -6.2614,3.8754 -10.426,4.9879 -4.7377,1.2656 -10.041,1.2026 -15.212,-0.18085 -15.158,-4.0556 -25.082,-19.344 -22.313,-34.374 0.8198,-4.4492 3.5984,-11.265 5.3033,-13.008 0.05467,-0.0559 0.1277,-0.0883 0.21773,-0.0977 z"
         >
         <animateTransform 
         attributeName="transform" 
         dur="1s" 
         type="translate" 
         values="0 20 ; 0 -20; 0 20" 
         repeatCount="indefinite" 
         begin="0.2"/>
         </path>
    
        </g>
    <g
       transform="matrix(0.30091715,0,0,0.30091715,92.501411,193.95531)"
       id="g7135">
      <path
         d="m 94.891,109.82 c -12.838,-0.0212 -19.246,1.2042 -27.827,5.3209 -12.802,6.1418 -22.3,17.642 -26.034,31.523 -3.05,11.337 -3.0506,99.974 -6.78e-4,111.31 4.6173,17.159 20.603,32.795 36.042,35.254 2.2507,0.35859 11.605,0.54831 20.788,0.42179 14.778998,-0.2036 17.201998,-0.41083 21.097998,-1.8048 13.364,-4.7808 24.663,-16.005 29.888,-29.69 1.613,-4.2245 1.978,-6.8202 2.5717,-18.281 0.78613,-15.173 0.10006,-88.024 -0.89798,-95.353 -0.42815,-3.144 -1.7356,-7.0182 -3.757,-11.131 -2.5243,-5.1359 -4.3594,-7.5605 -9.874,-13.046 -11.43,-11.369 -20.449,-14.488 -41.996998,-14.523 z m -11.504,14.777 c 3.9367,-0.0464 7.4824,1.1294 9.5969,3.4659 1.6646,1.8394 2.7396,1.8394 4.4043,0 3.7236,-4.1145 11.208,-4.608 18.595,-1.2263 8.834,4.0443 11.855,14.626 7.0659,24.749 -2.6306,5.5605 -5.7811,8.0228 -16.182,12.645 -3.9272,1.7454 -8.1718,3.9598 -9.4322,4.9212 l -2.2915,1.7482 -2.2048,-1.7623 c -1.2126,-0.96916 -5.4177,-3.1351 -9.3444,-4.8134 -12.831,-5.4842 -17.729,-10.939 -18.332,-20.417 -0.51145,-8.0322 2.4422,-13.776 8.72,-16.957 3.0449,-1.543 6.3433,-2.3183 9.4052,-2.3544 z m 38.958,51.268 c 0.10786,-0.003 0.21555,-0.001 0.32273,6.9e-4 0.63514,0.0132 1.2556,0.0946 1.8434,0.25286 6.3506,1.71 9.3685,8.5762 6.1149,13.912 -2.7643,4.5335 -7.9862,6.3607 -12.448,4.3554 -4.7523,-2.1361 -6.8094,-8.8876 -4.2287,-13.878 1.3872,-2.6826 5.0495,-4.5893 8.3952,-4.6431 z m -35.285,4.7453 c 2.7697,0 31.659,17.177 32.912,19.569 1.6975,3.2399 0.63926,5.5168 -6.1834,13.304 -3.5043,3.9999 -6.2358,7.4078 -6.0703,7.5734 0.16555,0.16554 5.2463,-0.0119 11.29,-0.39545 11.683,-0.74044 12.93,-0.53004 14.926,2.5152 0.99645,1.5208 0.95791,3.5456 -0.36243,19.082 -1.4346,16.88 -1.5319,17.429 -3.3823,19.05 -2.479,2.1725 -5.1517,2.1179 -7.4213,-0.15172 -2.1189,-2.119 -2.1606,-3.0584 -0.8137,-18.455 0.49357,-5.6422 0.62036,-10.43 0.28165,-10.639 -0.33871,-0.20934 -2.2927,-0.14982 -4.3421,0.13205 -3.0534,0.41994 -3.6399,0.73309 -3.2492,1.7345 2.9923,7.6707 3.1497,15.964 0.43864,23.099 -1.4804,3.8961 -5.0324,9.6602 -5.953,9.6602 -0.26593,0 -2.0414,-1.5863 -3.9456,-3.5249 l -3.4624,-3.5245 1.4518,-1.8553 c 2.3481,-3.0007 3.9077,-9.3218 3.3454,-13.56 -1.9049,-14.36 -16.524,-22.175 -29.226,-15.623 l -4.4415,2.2905 -3.533,-3.5867 -3.5326,-3.5867 1.7935,-1.4732 c 2.3937,-1.9658 8.6311,-4.9783 11.637,-5.6204 1.8705,-0.3996 4.1351,-2.4563 9.9418,-9.0287 5.5256,-6.2542 7.3003,-8.7304 6.693,-9.3378 -0.45462,-0.4546 -2.4033,-1.7474 -4.3309,-2.8731 l -3.5049,-2.0467 -5.809,5.1274 c -6.715,5.9268 -8.7473,6.7353 -11.599,4.615 -1.4574,-1.0838 -2.0341,-2.2416 -2.1974,-4.4109 -0.21283,-2.8271 0.0031,-3.1417 5.5653,-8.0995 10.056,-8.9633 11.364,-9.959 13.084,-9.959 z m -25.202,47.797 c 0.63022,-0.0658 2.1045,0.99176 4.1043,2.9616 l 3.6281,3.5734 -1.5326,3.4438 c -2.1453,4.8203 -2.0836,11.208 0.15768,16.272 4.4868,10.137 17.034,14.787 26.829,9.9408 l 2.8106,-1.3907 3.4715,3.5242 c 1.9306,1.96 3.245,3.89 2.9619,4.3481 -0.77221,1.2494 -6.2614,3.8754 -10.426,4.9879 -4.7377,1.2656 -10.041,1.2026 -15.212,-0.18085 -15.158,-4.0556 -25.082,-19.344 -22.313,-34.374 0.8198,-4.4492 3.5984,-11.265 5.3033,-13.008 0.05467,-0.0559 0.1277,-0.0883 0.21773,-0.0977 z"
         style="fill:#069568;paint-order:fill markers stroke"
         id="path7133">
         <animateTransform 
         attributeName="transform" 
         dur="1s" 
         type="translate" 
         values="0 10 ; 0 -10; 0 10" 
         repeatCount="indefinite" 
         begin="0.3"/>
        </path>
         

    </g>
    
  </g>
</svg>
