<svg xmlns="http://www.w3.org/2000/svg" viewBox="0 0 285.75 142.875" height="540" width="1080"><g transform="translate(0 -154.125)"><g style="line-height:1000;-inkscape-font-specification:'Century Gothic'"><path d="M269.058 239.65v4.95h9.69v6.306h-9.69v5.416h10.96v6.644h-19.296v-29.96h19.296v6.644zm-20.707 23.316L242.3 251.92h-.847v11.045h-8.336v-29.96h13.16q3.597 0 6.094 1.27 2.539 1.227 3.808 3.427 1.27 2.2 1.27 4.951 0 3.132-1.735 5.459-1.735 2.285-4.994 3.216l6.813 11.637zm-6.898-16.63h4.105q3.47 0 3.47-3.132 0-1.48-.889-2.327-.846-.846-2.581-.846h-4.105zM214.97 232.71q3.851 0 6.856 1.439 3.046 1.396 4.95 4.02 1.905 2.581 2.582 6.009h-8.76q-.719-1.778-2.242-2.75-1.524-1.016-3.512-1.016-2.751 0-4.444 2.073-1.692 2.031-1.692 5.459 0 3.427 1.692 5.5 1.693 2.074 4.444 2.074 1.988 0 3.512-1.015 1.523-1.016 2.242-2.793h8.76q-1.016 5.247-4.824 8.378-3.766 3.09-9.564 3.09-4.443 0-7.786-1.905-3.3-1.946-5.12-5.416-1.777-3.47-1.777-7.913t1.777-7.913q1.82-3.47 5.12-5.374 3.343-1.947 7.786-1.947zm-26.741 25.263h-10.622l-1.65 4.993h-8.76l10.96-29.833h9.606l10.918 29.833h-8.802zm-2.074-6.263l-3.216-9.733-3.258 9.733zm-29.333 4.95h9.352v6.306h-17.688v-29.96h8.336zm-35.148-24.12q4.232 0 7.702 1.99 3.512 1.946 5.501 5.458 2.031 3.513 2.031 7.913 0 4.401-2.031 7.914-2.031 3.512-5.543 5.5-3.47 1.947-7.66 1.947-4.189 0-7.701-1.946-3.512-1.99-5.543-5.501-2.032-3.513-2.032-7.914 0-4.4 2.032-7.913 2.03-3.512 5.543-5.458 3.512-1.99 7.701-1.99zm0 7.702q-3.173 0-4.993 2.074-1.82 2.03-1.82 5.585 0 3.47 1.82 5.544 1.82 2.073 4.993 2.073 3.132 0 4.951-2.073 1.82-2.074 1.82-5.544 0-3.554-1.82-5.585-1.777-2.074-4.95-2.074zm-18.165 7.66q0 4.358-1.904 7.786-1.904 3.385-5.417 5.331-3.512 1.947-8.251 1.947H76.003v-29.96h11.933q4.74 0 8.251 1.904 3.555 1.862 5.417 5.248 1.904 3.385 1.904 7.743zm-16.334 7.616q3.682 0 5.797-1.989 2.116-1.988 2.116-5.628 0-3.596-2.116-5.585-2.115-2.031-5.797-2.031h-2.835v15.233zm176.852-67.655q4.87 0 8.864 2.289 4.042 2.24 6.331 6.283 2.338 4.042 2.338 9.107 0 5.066-2.338 9.108-2.337 4.042-6.38 6.332-3.994 2.24-8.815 2.24-4.822 0-8.864-2.24-4.043-2.29-6.38-6.332-2.338-4.042-2.338-9.108 0-5.065 2.337-9.107 2.338-4.043 6.38-6.283 4.043-2.29 8.865-2.29zm0 8.864q-3.653 0-5.747 2.387-2.095 2.337-2.095 6.428 0 3.994 2.095 6.38 2.094 2.387 5.747 2.387 3.604 0 5.698-2.386 2.094-2.387 2.094-6.38 0-4.092-2.094-6.43-2.046-2.386-5.698-2.386zm-21.948-8.328v34.482h-9.595v-34.482zm-13.564 0v7.646h-13.832v6.137h10.325v7.208h-10.325v13.491h-9.595v-34.482zm-38.28 28.735H178.01l-1.9 5.747H166.03l12.614-34.336H189.7l12.566 34.336h-10.13zm-2.386-7.208l-3.701-11.202-3.75 11.202zm-23.537 3.02q0 2.873-1.462 5.21-1.46 2.339-4.286 3.702-2.824 1.364-6.77 1.364-5.99 0-9.886-2.874-3.848-2.873-4.189-8.182h10.18q.145 1.802 1.12 2.679.974.877 2.386.877 1.266 0 1.948-.634.73-.633.73-1.802 0-1.558-1.412-2.386-1.412-.877-4.48-1.9-3.264-1.12-5.407-2.191-2.094-1.072-3.652-3.215-1.51-2.143-1.51-5.503 0-3.215 1.656-5.504 1.656-2.338 4.53-3.506 2.873-1.218 6.525-1.218 5.942 0 9.449 2.825 3.555 2.776 3.896 7.841h-10.276q-.195-1.607-1.023-2.386-.78-.78-2.094-.78-1.12 0-1.754.585-.633.584-.633 1.753 0 1.461 1.364 2.29 1.412.827 4.383 1.85 3.264 1.169 5.406 2.289 2.143 1.12 3.702 3.263 1.559 2.143 1.559 5.552zm-42.756-16.9v5.698h11.153V209h-11.153v6.235h12.614v7.646h-22.21v-34.482h22.21v7.646zm-13.895 9.496q0 5.017-2.191 8.962-2.192 3.896-6.235 6.137-4.042 2.24-9.497 2.24H76.003v-34.482h13.734q5.455 0 9.497 2.191 4.092 2.143 6.235 6.04 2.191 3.896 2.191 8.912zm-18.8 8.767q4.238 0 6.673-2.289 2.435-2.289 2.435-6.478 0-4.14-2.435-6.428-2.435-2.338-6.672-2.338h-3.264v17.533zm-52.375-41.623c-7.384-.012-11.07.692-16.005 3.06-7.363 3.533-12.826 10.147-14.973 18.13-1.754 6.521-1.755 57.502 0 64.022 2.655 9.869 11.85 18.862 20.73 20.276 1.294.206 6.674.316 11.956.243 8.5-.117 9.893-.236 12.134-1.038 7.687-2.75 14.185-9.206 17.19-17.077.928-2.43 1.138-3.922 1.48-10.514.452-8.727.057-50.628-.517-54.843-.246-1.808-.998-4.037-2.16-6.402-1.453-2.954-2.508-4.349-5.68-7.504-6.574-6.539-11.761-8.333-24.155-8.353zm-6.616 8.499c2.264-.027 4.303.65 5.52 1.993.957 1.058 1.575 1.058 2.533 0 2.141-2.366 6.446-2.65 10.695-.705 5.08 2.326 6.818 8.412 4.064 14.235-1.513 3.198-3.325 4.614-9.308 7.272-2.258 1.004-4.7 2.278-5.425 2.83l-1.318 1.006-1.268-1.013c-.697-.558-3.116-1.803-5.374-2.769-7.38-3.154-10.197-6.291-10.544-11.743-.294-4.62 1.405-7.923 5.015-9.753 1.752-.887 3.649-1.333 5.41-1.354zm22.407 29.487c.062-.002.124 0 .185 0 .366.008.722.055 1.06.146 3.653.983 5.389 4.933 3.518 8.001-1.59 2.608-4.594 3.659-7.16 2.506-2.733-1.23-3.916-5.112-2.432-7.983.798-1.542 2.904-2.64 4.828-2.67zm-20.295 2.73c1.593 0 18.21 9.879 18.93 11.255.976 1.863.368 3.173-3.557 7.652-2.015 2.3-3.586 4.26-3.491 4.355.095.096 3.017-.006 6.494-.227 6.72-.426 7.436-.305 8.584 1.447.573.874.551 2.039-.208 10.975-.825 9.708-.881 10.024-1.945 10.957-1.426 1.25-2.963 1.218-4.269-.088-1.219-1.219-1.243-1.759-.468-10.614.284-3.245.357-6 .162-6.12-.195-.12-1.319-.086-2.497.077-1.756.241-2.094.421-1.87.997 1.722 4.412 1.812 9.182.253 13.286-.851 2.24-2.894 5.556-3.424 5.556-.153 0-1.174-.913-2.269-2.028l-1.991-2.027.835-1.067c1.35-1.726 2.247-5.361 1.924-7.799-1.096-8.26-9.504-12.754-16.81-8.986l-2.554 1.318-2.032-2.063-2.032-2.063 1.031-.847c1.377-1.131 4.965-2.864 6.693-3.233 1.076-.23 2.379-1.413 5.718-5.193 3.179-3.597 4.2-5.021 3.85-5.37-.261-.262-1.382-1.006-2.49-1.653l-2.017-1.177-3.34 2.949c-3.863 3.409-5.032 3.874-6.672 2.654-.838-.623-1.17-1.29-1.264-2.537-.122-1.626.002-1.807 3.2-4.658 5.785-5.156 6.537-5.728 7.526-5.728zm-14.495 27.49c.363-.038 1.21.57 2.36 1.704l2.087 2.055-.881 1.98c-1.234 2.773-1.198 6.447.09 9.36 2.581 5.83 9.798 8.504 15.432 5.717l1.616-.8 1.997 2.027c1.11 1.127 1.866 2.238 1.703 2.501-.444.719-3.601 2.229-5.996 2.869-2.725.728-5.775.692-8.75-.104-8.718-2.333-14.426-11.126-12.833-19.77.471-2.56 2.07-6.48 3.05-7.482a.198.198 0 01.125-.056z" style="-inkscape-font-specification:'Poppins Ultra-Bold'" font-weight="800" font-family="Poppins" aria-label="DO LACRE" font-size="39.229" letter-spacing="0" word-spacing="0" fill="#069568" stroke-width="2.942"/></g><flowRoot style="line-height:1000;-inkscape-font-specification:'Century Gothic'" xml:space="preserve" fill="#000" fill-opacity="1" stroke="none" font-family="Century Gothic" font-style="normal" font-weight="400" font-size="13.333" letter-spacing="0" word-spacing="0" font-stretch="normal" font-variant="normal"><flowRegion><path d="M-350.87-455.93h1724.66V764.017H-350.87z"/></flowRegion><flowPara/></flowRoot></g></svg>