<?xml version="1.0" encoding="UTF-8" standalone="no"?>
<!-- Created with Inkscape (http://www.inkscape.org/) -->

<svg
   xmlns:dc="http://purl.org/dc/elements/1.1/"
   xmlns:cc="http://creativecommons.org/ns#"
   xmlns:rdf="http://www.w3.org/1999/02/22-rdf-syntax-ns#"
   xmlns:svg="http://www.w3.org/2000/svg"
   xmlns="http://www.w3.org/2000/svg"
   xmlns:sodipodi="http://sodipodi.sourceforge.net/DTD/sodipodi-0.dtd"
   xmlns:inkscape="http://www.inkscape.org/namespaces/inkscape"
   version="1.1"
   id="svg815"
   width="512.15002"
   height="512.15002"
   viewBox="0 0 512.15002 512.15002"
   sodipodi:docname="pet_graph.svg"
   inkscape:version="0.92.4 (unknown)">
  <metadata
     id="metadata821">
    <rdf:RDF>
      <cc:Work
         rdf:about="">
        <dc:format>image/svg+xml</dc:format>
        <dc:type
           rdf:resource="http://purl.org/dc/dcmitype/StillImage" />
        <dc:title></dc:title>
      </cc:Work>
    </rdf:RDF>
  </metadata>
  <defs
     id="defs819" />
  <sodipodi:namedview
     pagecolor="#ffffff"
     bordercolor="#666666"
     borderopacity="1"
     objecttolerance="10"
     gridtolerance="10"
     guidetolerance="10"
     inkscape:pageopacity="0"
     inkscape:pageshadow="2"
     inkscape:window-width="1317"
     inkscape:window-height="713"
     id="namedview817"
     showgrid="false"
     inkscape:zoom="0.54068808"
     inkscape:cx="-13.482779"
     inkscape:cy="212.35874"
     inkscape:window-x="49"
     inkscape:window-y="27"
     inkscape:window-maximized="1"
     inkscape:current-layer="svg815"
     showguides="true"
     inkscape:guide-bbox="true">
    <sodipodi:guide
       position="967.76504,520.50065"
       orientation="0,1"
       id="guide1053"
       inkscape:locked="false" />
  </sodipodi:namedview>
  <path
     style="opacity:1;fill:#b3b3b3;fill-opacity:1;stroke:none;stroke-width:2.2114439;stroke-linecap:butt;stroke-linejoin:bevel;stroke-miterlimit:4;stroke-dasharray:none;stroke-dashoffset:0;stroke-opacity:1;paint-order:fill markers stroke"
     d="M 210.14648 3.8476562 L 210.14648 19.503906 C 210.14648 28.115079 210.46432 35.465447 210.85352 35.839844 C 211.24272 36.214244 220.5577 36.521484 231.55273 36.521484 L 251.54297 36.521484 L 251.54297 20.183594 L 251.54297 3.8476562 L 230.84375 3.8476562 L 210.14648 3.8476562 z M 257.47461 3.8476562 L 257.47461 20.183594 L 257.47461 36.521484 L 276.23242 36.521484 C 292.19684 36.521484 295.27759 36.270291 296.92969 34.832031 C 298.61726 33.362911 298.87109 31.438633 298.87109 20.099609 C 298.87109 9.6038344 298.54539 6.74238 297.20312 5.4511719 C 295.81079 4.111805 292.38914 3.8476562 276.50391 3.8476562 L 257.47461 3.8476562 z M 220.14844 44.666016 L 220.14844 55.298828 L 220.14844 65.931641 L 211.56445 73.306641 C 202.34015 81.232697 192.87005 92.72525 186.69727 103.48438 C 183.15523 109.6581 176.12456 124.47015 174.32617 129.54688 L 173.5625 131.69922 L 255.43359 131.69922 L 337.30469 131.69922 L 333.58203 122.85352 C 331.53537 117.98774 328.53283 111.42376 326.9082 108.26758 C 321.98691 98.707001 308.2103 81.796312 298.68555 73.623047 L 289.80273 66 L 289.80273 55.332031 L 289.80273 44.666016 L 254.97461 44.666016 L 220.14844 44.666016 z "
     id="path825" />
  <path
     style="opacity:1;fill:#b3b3b3;fill-opacity:1;stroke:none;stroke-width:2.2388978;stroke-linecap:butt;stroke-linejoin:bevel;stroke-miterlimit:4;stroke-dasharray:none;stroke-dashoffset:0;stroke-opacity:1;paint-order:fill markers stroke"
     d="M 169.44531 142.75 L 166.20703 155.76953 C 160.53917 178.54647 159.22648 190.45228 159.20508 219.33203 C 159.19348 234.98481 159.72465 249.03409 160.53516 254.55859 C 161.88134 263.73428 164.73587 278.94874 165.56445 281.36328 C 165.90478 282.35499 175.12379 282.63867 206.90234 282.63867 L 247.80078 282.63867 L 247.80078 212.69531 L 247.80078 142.75 L 208.62305 142.75 L 169.44531 142.75 z M 262.83789 142.75 L 262.83789 212.69531 L 262.83789 282.63867 L 304.19531 282.63867 L 345.55078 282.63867 L 346.56836 278.81055 C 348.34532 272.11433 350.88786 254.96862 351.98242 242.30664 C 354.55474 212.54985 351.9508 181.51072 344.38086 151.68359 L 342.11328 142.75 L 302.47656 142.75 L 262.83789 142.75 z "
     id="path831" />
  <path
     style="opacity:1;fill:#069568;fill-opacity:1;stroke:none;stroke-width:2.31268096;stroke-linecap:butt;stroke-linejoin:bevel;stroke-miterlimit:4;stroke-dasharray:none;stroke-dashoffset:0;stroke-opacity:1;paint-order:fill markers stroke"
     d="M 255.32617 290.7832 C 206.77817 290.7832 167.05859 290.96172 167.05859 291.17969 C 167.05859 294.27515 176.28548 318.95266 181.68359 330.29492 C 185.63478 338.59693 186.23268 345.75586 183.47461 351.70703 C 182.53731 353.7295 178.48464 358.52335 174.46875 362.36133 C 163.28742 373.04733 163.66016 370.66023 163.66016 431.69336 C 163.66016 488.86507 163.77596 489.94083 170.78906 498.23047 C 172.88625 500.70941 177.05812 503.79542 180.51562 505.42383 C 191.96553 510.81651 206.46082 508.47455 215.66992 499.74609 C 218.13111 497.41336 220.44986 493.5557 222.02539 489.17188 L 224.50586 482.27148 L 226.33203 487.93555 C 228.73524 495.38854 233.65921 501.34522 240.3457 504.88867 C 245.07609 507.39551 246.93709 507.76367 254.83398 507.76367 C 264.99816 507.76367 269.63182 506.22989 275.79688 500.82422 C 279.93244 497.19806 284.81884 488.63516 284.83594 484.98438 C 284.85391 481.15343 286.82705 483.38485 288.78125 489.44531 C 294.73488 507.90907 321.5109 514.51387 336.66406 501.25586 C 345.81607 493.24846 345.40045 496.35634 345.75977 433.22461 C 346.12758 368.60262 346.64448 372.24969 335.67969 362.30273 C 331.96044 358.92872 328.1025 354.43817 327.10547 352.32227 C 324.15901 346.06926 324.81423 338.35723 329.03711 329.58398 C 333.43018 320.4572 338.3305 307.91619 341.38086 297.99219 L 343.5957 290.7832 L 255.32617 290.7832 z M 189.68164 384.75977 C 193.1619 384.80925 196.52704 385.09059 197.36523 385.57031 C 198.48652 386.2121 198.72952 396.54877 198.49805 433.80273 L 198.20312 481.2168 L 188.85938 481.51172 L 179.51562 481.80859 L 179.51562 433.88672 C 179.51563 391.129 179.71018 385.89674 181.30859 385.34375 C 182.60742 384.89441 186.20138 384.71028 189.68164 384.75977 z "
     id="path835" />
</svg>
