<?xml version="1.0" encoding="UTF-8" standalone="no"?>
<svg
   xmlns:dc="http://purl.org/dc/elements/1.1/"
   xmlns:cc="http://creativecommons.org/ns#"
   xmlns:rdf="http://www.w3.org/1999/02/22-rdf-syntax-ns#"
   xmlns:svg="http://www.w3.org/2000/svg"
   xmlns="http://www.w3.org/2000/svg"
   id="svg8"
   version="1.1"
   viewBox="0 0 285.75001 142.875"
   height="540"
   width="1080">
  <defs
     id="defs2" />
  <metadata
     id="metadata5">
    <rdf:RDF>
      <cc:Work
         rdf:about="">
        <dc:format>image/svg+xml</dc:format>
        <dc:type
           rdf:resource="http://purl.org/dc/dcmitype/StillImage" />
        <dc:title></dc:title>
      </cc:Work>
    </rdf:RDF>
  </metadata>
  <g
     transform="translate(0,-154.12501)"
     id="layer1">
    <g
       id="g21330">
      <g
         id="g14090"
         transform="matrix(0.57515767,0,0,0.57515767,-18.091986,109.52196)" />
      <g
         aria-label="DESAFIO"
         style="font-style:normal;font-variant:normal;font-weight:normal;font-stretch:normal;font-size:45.15074921px;line-height:1000;font-family:'Century Gothic';-inkscape-font-specification:'Century Gothic';letter-spacing:0px;word-spacing:0px;fill:#069568;fill-opacity:1;stroke:none;stroke-width:3.38630629"
         id="text21165"
         transform="matrix(1.0786959,0,0,1.0786959,-52.88316,43.06386)" />
      <g
         aria-label="DO LACRE"
         style="font-style:normal;font-variant:normal;font-weight:normal;font-stretch:normal;font-size:39.22878265px;line-height:1000;font-family:'Century Gothic';-inkscape-font-specification:'Century Gothic';letter-spacing:0px;word-spacing:0px;fill:#069568;fill-opacity:1;stroke:none;stroke-width:2.9421587"
         id="text21169"
         transform="matrix(1.0786959,0,0,1.0786959,-52.88316,43.06386)">
        <path
           d="m 298.45387,182.2441 v 4.58977 h 8.98339 v 5.84509 h -8.98339 v 5.02128 h 10.16025 v 6.15892 H 290.7258 v -27.77398 h 17.88832 v 6.15892 z m -19.19636,21.61506 -5.60972,-10.23871 h -0.78457 v 10.23871 h -7.72807 v -27.77398 h 12.20015 q 3.33444,0 5.64894,1.17687 2.35373,1.13763 3.53059,3.17753 1.17687,2.03989 1.17687,4.58977 0,2.90293 -1.60838,5.06051 -1.60838,2.11835 -4.629,2.98139 l 6.31583,10.78791 z m -6.39429,-15.41691 h 3.80519 q 3.21676,0 3.21676,-2.90293 0,-1.37301 -0.82381,-2.15758 -0.78457,-0.78458 -2.39295,-0.78458 h -3.80519 z m -24.5517,-12.63167 q 3.56981,0 6.35506,1.33378 2.82447,1.29455 4.58977,3.72673 1.76529,2.39296 2.39295,5.57049 h -8.12036 q -0.66689,-1.64761 -2.07912,-2.54987 -1.41224,-0.94149 -3.25599,-0.94149 -2.54987,0 -4.11902,1.92221 -1.56915,1.88298 -1.56915,5.06051 0,3.17753 1.56915,5.09975 1.56915,1.92221 4.11902,1.92221 1.84375,0 3.25599,-0.9415 1.41223,-0.94149 2.07912,-2.58909 h 8.12036 q -0.94149,4.86436 -4.47208,7.76729 -3.49136,2.86371 -8.8657,2.86371 -4.11903,0 -7.2181,-1.7653 -3.05985,-1.80452 -4.74668,-5.02128 -1.64761,-3.21676 -1.64761,-7.33579 0,-4.11902 1.64761,-7.33578 1.68683,-3.21676 4.74668,-4.98205 3.09907,-1.80453 7.2181,-1.80453 z m -24.79075,23.41959 h -9.84642 l -1.52993,4.62899 h -8.12036 l 10.16026,-27.65629 h 8.90493 l 10.12103,27.65629 h -8.15959 z m -1.92221,-5.80586 -2.98139,-9.02262 -3.02061,9.02262 z m -27.19291,4.58976 h 8.66956 v 5.84509 h -16.39763 v -27.77398 h 7.72807 z m -32.58379,-22.3604 q 3.92288,0 7.13964,1.84375 3.25599,1.80452 5.09974,5.06051 1.88298,3.25599 1.88298,7.33578 0,4.0798 -1.88298,7.33579 -1.88298,3.25599 -5.13897,5.09974 -3.21676,1.80452 -7.10041,1.80452 -3.88365,0 -7.13964,-1.80452 -3.25599,-1.84375 -5.13897,-5.09974 -1.88298,-3.25599 -1.88298,-7.33579 0,-4.07979 1.88298,-7.33578 1.88298,-3.25599 5.13897,-5.06051 3.25599,-1.84375 7.13964,-1.84375 z m 0,7.13964 q -2.94216,0 -4.629,1.92221 -1.68683,1.88298 -1.68683,5.17819 0,3.21676 1.68683,5.13898 1.68684,1.92221 4.629,1.92221 2.90293,0 4.58977,-1.92221 1.68683,-1.92222 1.68683,-5.13898 0,-3.29521 -1.68683,-5.17819 -1.64761,-1.92221 -4.58977,-1.92221 z m -16.84018,7.1004 q 0,4.04057 -1.7653,7.2181 -1.76529,3.1383 -5.02128,4.94283 -3.25599,1.80452 -7.64961,1.80452 h -11.06252 v -27.77398 h 11.06252 q 4.39362,0 7.64961,1.7653 3.29522,1.72606 5.02128,4.86437 1.7653,3.1383 1.7653,7.17886 z m -15.14231,7.06119 q 3.4129,0 5.37434,-1.84376 1.96144,-1.84375 1.96144,-5.21743 0,-3.33444 -1.96144,-5.17819 -1.96144,-1.88299 -5.37434,-1.88299 h -2.62833 v 14.12237 z m 163.94951,-62.71962 q 4.51508,0 8.21744,2.12209 3.74751,2.07693 5.8696,5.82444 2.16723,3.74751 2.16723,8.44319 0,4.69568 -2.16723,8.44319 -2.16724,3.74752 -5.91475,5.8696 -3.70236,2.07693 -8.17229,2.07693 -4.46992,0 -8.21743,-2.07693 -3.74751,-2.12208 -5.91475,-5.8696 -2.16724,-3.74751 -2.16724,-8.44319 0,-4.69568 2.16724,-8.44319 2.16724,-3.74751 5.91475,-5.82444 3.74751,-2.12209 8.21743,-2.12209 z m 0,8.21744 q -3.3863,0 -5.32778,2.21238 -1.94149,2.16724 -1.94149,5.9599 0,3.70236 1.94149,5.91475 1.94148,2.21239 5.32778,2.21239 3.34116,0 5.28264,-2.21239 1.94148,-2.21239 1.94148,-5.91475 0,-3.79266 -1.94148,-5.9599 -1.89633,-2.21238 -5.28264,-2.21238 z m -20.34675,-7.72078 v 31.96673 h -8.8947 v -31.96673 z m -12.57449,0 v 7.08867 h -12.82281 v 5.68899 h 9.57196 v 6.68231 h -9.57196 v 12.50676 h -8.8947 v -31.96673 z m -35.48637,26.63894 h -11.33284 l -1.76088,5.32779 h -9.3462 l 11.69404,-31.83128 h 10.24922 l 11.64889,31.83128 h -9.39135 z m -2.21239,-6.68231 -3.43146,-10.38467 -3.4766,10.38467 z m -21.82051,2.79935 q 0,2.66389 -1.35452,4.83113 -1.35453,2.16723 -3.97327,3.43145 -2.61874,1.26422 -6.27595,1.26422 -5.55355,0 -9.16561,-2.66389 -3.5669,-2.66389 -3.88296,-7.58533 h 9.43651 q 0.13545,1.67058 1.03846,2.4833 0.90302,0.81271 2.21239,0.81271 1.17392,0 1.80603,-0.58696 0.67726,-0.58696 0.67726,-1.67058 0,-1.44482 -1.30937,-2.21238 -1.30937,-0.81272 -4.15387,-1.76088 -3.0251,-1.03847 -5.01173,-2.03179 -1.94148,-0.99331 -3.38631,-2.97995 -1.39967,-1.98663 -1.39967,-5.10203 0,-2.97995 1.53512,-5.10204 1.53513,-2.16723 4.19902,-3.25085 2.6639,-1.12877 6.0502,-1.12877 5.5084,0 8.75925,2.61874 3.296,2.5736 3.61206,7.26927 h -9.52681 q -0.1806,-1.48997 -0.94816,-2.21238 -0.72242,-0.72241 -1.94149,-0.72241 -1.03846,0 -1.62542,0.54181 -0.58696,0.5418 -0.58696,1.62542 0,1.35452 1.26422,2.12209 1.30937,0.76756 4.06356,1.71573 3.02511,1.08361 5.01174,2.12208 1.98663,1.03847 3.43145,3.0251 1.44483,1.98663 1.44483,5.14719 z m -39.63671,-15.66731 v 5.28263 h 10.33952 v 6.72747 H 161.71166 V 159.61 h 11.69404 v 7.08867 h -20.58874 v -31.96673 h 20.58874 v 7.08867 z M 148.831,150.625 q 0,4.65053 -2.03179,8.30774 -2.03178,3.61206 -5.77929,5.68899 -3.74752,2.07694 -8.8044,2.07694 h -12.73251 v -31.96673 h 12.73251 q 5.05688,0 8.8044,2.03178 3.79266,1.98664 5.77929,5.5987 2.03179,3.61206 2.03179,8.26258 z m -17.42819,8.12714 q 3.92811,0 6.18565,-2.12209 2.25754,-2.12208 2.25754,-6.00505 0,-3.83781 -2.25754,-5.9599 -2.25754,-2.16723 -6.18565,-2.16723 h -3.0251 v 16.25427 z M 82.848614,120.16539 c -6.845186,-0.0113 -10.261914,0.64208 -14.837279,2.83709 -6.825991,3.27479 -11.890299,9.40667 -13.881257,16.80798 -1.626252,6.04485 -1.626571,53.30586 -3.62e-4,59.35018 2.461932,9.14913 10.985463,17.4862 19.217495,18.79734 1.200067,0.1912 6.187754,0.29235 11.084104,0.22489 7.880121,-0.10856 9.172058,-0.21905 11.249394,-0.96231 7.125651,-2.54911 13.150241,-8.53382 15.936201,-15.83063 0.86005,-2.25249 1.05466,-3.63651 1.37122,-9.74737 0.41916,-8.09021 0.0534,-46.93416 -0.4788,-50.84196 -0.22829,-1.67637 -0.92542,-3.74209 -2.00322,-5.93502 -1.34595,-2.73845 -2.32442,-4.03124 -5.26479,-6.95609 -6.094445,-6.06192 -10.90335,-7.72496 -22.392683,-7.74362 z m -6.133901,7.87906 c 2.099038,-0.0247 3.989595,0.60219 5.117041,1.84801 0.88756,0.98076 1.460747,0.98076 2.34836,0 1.985414,-2.19384 5.976075,-2.45698 9.914803,-0.65386 4.710264,2.15641 6.321053,7.79854 3.767518,13.19609 -1.402628,2.96485 -3.082466,4.27774 -8.628197,6.74228 -2.093973,0.93065 -4.357182,2.11136 -5.029223,2.62397 l -1.221822,0.93214 -1.175593,-0.93965 c -0.646555,-0.51676 -2.888703,-1.67163 -4.982408,-2.5665 -6.841454,-2.92416 -9.453054,-5.83264 -9.774572,-10.88628 -0.272704,-4.28275 1.302174,-7.34533 4.64948,-9.04143 1.623532,-0.82272 3.38223,-1.23611 5.014827,-1.25536 z m 20.772298,27.33595 c 0.05751,-0.002 0.114931,-5.3e-4 0.172079,3.7e-4 0.338655,0.007 0.669482,0.0504 0.982896,0.13483 3.386124,0.91176 4.995254,4.5728 3.260444,7.41784 -1.47391,2.41724 -4.258216,3.3915 -6.637236,2.32228 -2.533913,-1.13896 -3.630753,-4.73884 -2.254731,-7.39971 0.739651,-1.43035 2.692379,-2.447 4.476297,-2.47569 z m -18.813864,2.53018 c 1.476796,0 16.880491,9.15873 17.548587,10.43414 0.905102,1.72751 0.340852,2.94154 -3.296972,7.09366 -1.868483,2.13273 -3.324911,3.94981 -3.236667,4.03811 0.08827,0.0883 2.797313,-0.006 6.019797,-0.21085 6.229348,-0.3948 6.894238,-0.28262 7.958498,1.3411 0.53131,0.81088 0.51076,1.8905 -0.19324,10.17447 -0.76493,9.00037 -0.81681,9.29309 -1.80344,10.1574 -1.32179,1.15838 -2.746868,1.12926 -3.957013,-0.0809 -1.129791,-1.12985 -1.152025,-1.63073 -0.433862,-9.84016 0.26317,-3.0084 0.330774,-5.56124 0.150175,-5.67268 -0.180599,-0.11162 -1.222461,-0.0799 -2.315196,0.0704 -1.628064,0.22391 -1.940784,0.39088 -1.732464,0.92483 1.595486,4.08999 1.679411,8.51196 0.233881,12.31632 -0.789345,2.07739 -2.683261,5.15079 -3.174123,5.15079 -0.141793,0 -1.088469,-0.84581 -2.103783,-1.87947 l -1.846142,-1.87925 0.774096,-0.98924 c 1.252,-1.59997 2.083575,-4.97036 1.783758,-7.23015 -1.015688,-7.65672 -8.810551,-11.82365 -15.583222,-8.33015 l -2.368196,1.22129 -1.883786,-1.91242 -1.883572,-1.91241 0.956289,-0.78551 c 1.276314,-1.04816 4.602079,-2.65442 6.204816,-2.99678 0.997346,-0.21307 2.204824,-1.30969 5.30094,-4.81408 2.946235,-3.33472 3.8925,-4.65502 3.568689,-4.97889 -0.242402,-0.24239 -1.281432,-0.93171 -2.309223,-1.53193 l -1.868803,-1.09129 -3.097343,2.73391 c -3.58042,3.16016 -4.664036,3.59125 -6.184555,2.46071 -0.777082,-0.57788 -1.084576,-1.19522 -1.171648,-2.35188 -0.11348,-1.5074 0.0017,-1.67515 2.967403,-4.31863 5.361831,-4.77921 6.059253,-5.31011 6.976353,-5.31011 z M 65.23551,183.39581 c 0.336032,-0.0351 1.122114,0.52881 2.188401,1.57912 l 1.934493,1.90533 -0.817178,1.83622 c -1.143868,2.57017 -1.11097,5.97608 0.08407,8.67619 2.392349,5.40502 9.082481,7.88438 14.305148,5.3004 l 1.498604,-0.74151 1.850995,1.87909 c 1.02939,1.04507 1.730225,2.07414 1.579277,2.31839 -0.411741,0.66618 -3.338562,2.06636 -5.559115,2.65954 -2.526128,0.67481 -5.353833,0.64122 -8.110996,-0.0964 -8.082204,-2.16243 -13.373653,-10.31417 -11.89723,-18.32812 0.437115,-2.3723 1.918657,-6.00647 2.827705,-6.93583 0.02915,-0.0298 0.06809,-0.0471 0.116093,-0.0521 z"
           style="font-style:normal;font-variant:normal;font-weight:800;font-stretch:normal;font-family:Poppins;-inkscape-font-specification:'Poppins Ultra-Bold';fill:#069568;fill-opacity:1;stroke-width:2.9421587"
           id="path21241" />
      </g>
    </g>
    <flowRoot
       style="fill:black;fill-opacity:1;stroke:none;font-family:'Century Gothic';font-style:normal;font-weight:normal;font-size:13.33333333px;line-height:1000;letter-spacing:0px;word-spacing:0px;-inkscape-font-specification:'Century Gothic';font-stretch:normal;font-variant:normal"
       id="flowRoot21278"
       xml:space="preserve"><flowRegion
         id="flowRegion21280"><rect
           y="-140.1476"
           x="777.31152"
           height="21.591988"
           width="21.591988"
           id="rect21282" /></flowRegion><flowPara
         id="flowPara21284"></flowPara></flowRoot>    <flowRoot
       style="fill:black;fill-opacity:1;stroke:none;font-family:'Century Gothic';font-style:normal;font-weight:normal;font-size:13.33333333px;line-height:1000;letter-spacing:0px;word-spacing:0px;-inkscape-font-specification:'Century Gothic';font-stretch:normal;font-variant:normal"
       id="flowRoot21286"
       xml:space="preserve"><flowRegion
         id="flowRegion21288"><rect
           y="-455.93042"
           x="-350.86978"
           height="1219.9473"
           width="1724.66"
           id="rect21290" /></flowRegion><flowPara
         id="flowPara21292"></flowPara></flowRoot>  </g>
</svg>
