<?xml version="1.0" encoding="UTF-8" standalone="no"?>
<!-- Created with Inkscape (http://www.inkscape.org/) -->

<svg
   xmlns:dc="http://purl.org/dc/elements/1.1/"
   xmlns:cc="http://creativecommons.org/ns#"
   xmlns:rdf="http://www.w3.org/1999/02/22-rdf-syntax-ns#"
   xmlns:svg="http://www.w3.org/2000/svg"
   xmlns="http://www.w3.org/2000/svg"
   xmlns:sodipodi="http://sodipodi.sourceforge.net/DTD/sodipodi-0.dtd"
   xmlns:inkscape="http://www.inkscape.org/namespaces/inkscape"
   version="1.1"
   id="svg815"
   width="512.15002"
   height="512.15002"
   viewBox="0 0 512.15002 512.15002"
   sodipodi:docname="pet.svg"
   inkscape:version="0.92.4 (unknown)">
  <metadata
     id="metadata821">
    <rdf:RDF>
      <cc:Work
         rdf:about="">
        <dc:format>image/svg+xml</dc:format>
        <dc:type
           rdf:resource="http://purl.org/dc/dcmitype/StillImage" />
        <dc:title></dc:title>
      </cc:Work>
    </rdf:RDF>
  </metadata>
  <defs
     id="defs819" />
  <sodipodi:namedview
     pagecolor="#ffffff"
     bordercolor="#666666"
     borderopacity="1"
     objecttolerance="10"
     gridtolerance="10"
     guidetolerance="10"
     inkscape:pageopacity="0"
     inkscape:pageshadow="2"
     inkscape:window-width="1317"
     inkscape:window-height="713"
     id="namedview817"
     showgrid="false"
     inkscape:zoom="0.54068808"
     inkscape:cx="-13.482779"
     inkscape:cy="212.35874"
     inkscape:window-x="49"
     inkscape:window-y="27"
     inkscape:window-maximized="1"
     inkscape:current-layer="g843"
     showguides="true"
     inkscape:guide-bbox="true">
    <sodipodi:guide
       position="967.76504,520.50065"
       orientation="0,1"
       id="guide1053"
       inkscape:locked="false" />
  </sodipodi:namedview>
  <g
     id="g843"
     transform="matrix(0.81164814,0,0,0.78077301,-22.465372,-24.035969)"
     style="fill:#069568;fill-opacity:1">
    <g
       id="g1061">
      <path
         style="opacity:1;fill:#069568;fill-opacity:1;stroke:none;stroke-width:2.77798343;stroke-linecap:butt;stroke-linejoin:bevel;stroke-miterlimit:4;stroke-dasharray:none;stroke-dashoffset:0;stroke-opacity:1;paint-order:fill markers stroke"
         d="m 242.45813,196.70713 c 2.21573,-6.50218 10.87834,-25.47299 15.24234,-33.38019 7.60525,-13.78009 19.27413,-28.50086 30.63903,-38.65241 l 10.57496,-9.44596 V 101.61019 87.99183 h 42.90897 42.90895 v 13.66179 13.66178 l 10.94496,9.76336 c 11.73508,10.46817 28.70804,32.12797 34.77137,44.37298 2.00164,4.04238 5.7025,12.44867 8.22412,18.68067 l 4.58476,11.33088 H 342.38826 241.51892 Z"
         id="path825"
         inkscape:connector-curvature="0" />
      <path
         style="opacity:1;fill:#069568;fill-opacity:1;stroke:none;stroke-width:2.81247044;stroke-linecap:butt;stroke-linejoin:bevel;stroke-miterlimit:4;stroke-dasharray:none;stroke-dashoffset:0;stroke-opacity:1;paint-order:fill markers stroke"
         d="m 344.90269,56.636262 v -20.92465 h 23.44682 c 19.57157,0 23.78648,0.339663 25.50191,2.0551 1.65376,1.653756 2.0551,5.317472 2.0551,18.760272 0,14.522817 -0.31243,16.987926 -2.39161,18.869549 -2.03549,1.842098 -5.83278,2.164378 -25.50191,2.164378 h -23.11031 z"
         id="path827"
         inkscape:connector-curvature="0" />
      <path
         style="opacity:1;fill:#069568;fill-opacity:1;stroke:none;stroke-width:2.81247044;stroke-linecap:butt;stroke-linejoin:bevel;stroke-miterlimit:4;stroke-dasharray:none;stroke-dashoffset:0;stroke-opacity:1;paint-order:fill markers stroke"
         d="m 287.46293,76.68905 c -0.47952,-0.479522 -0.87186,-9.895614 -0.87186,-20.924649 V 35.711612 h 25.50191 25.50192 v 20.92465 20.924649 h -24.63005 c -13.54654,0 -25.0224,-0.392337 -25.50192,-0.871861 z"
         id="path829"
         inkscape:connector-curvature="0" />
      <path
         style="opacity:1;fill:#069568;fill-opacity:1;stroke:none;stroke-width:2.81247044;stroke-linecap:butt;stroke-linejoin:bevel;stroke-miterlimit:4;stroke-dasharray:none;stroke-dashoffset:0;stroke-opacity:1;paint-order:fill markers stroke"
         d="m 231.66379,391.14893 c -1.02086,-3.0925 -4.53789,-22.57745 -6.19647,-34.32951 -0.9986,-7.07569 -1.65164,-25.07097 -1.63734,-45.11877 0.0264,-36.98866 1.64197,-52.23767 8.62512,-81.40997 l 3.99143,-16.67433 h 48.26944 48.26943 v 89.58366 89.58365 h -50.39098 c -39.15312,0 -50.51133,-0.36457 -50.93063,-1.63473 z"
         id="path831"
         inkscape:connector-curvature="0" />
      <path
         style="opacity:1;fill:#069568;fill-opacity:1;stroke:none;stroke-width:2.81247044;stroke-linecap:butt;stroke-linejoin:bevel;stroke-miterlimit:4;stroke-dasharray:none;stroke-dashoffset:0;stroke-opacity:1;paint-order:fill markers stroke"
         d="m 351.51219,303.20001 v -89.58366 h 48.83584 48.83585 l 2.79373,11.44317 c 9.32662,38.20205 12.53403,77.95446 9.36478,116.06642 -1.34856,16.21724 -4.4821,38.17712 -6.67143,46.75351 l -1.25192,4.90421 h -50.95342 -50.95343 z"
         id="path833"
         inkscape:connector-curvature="0" />
      <path
         style="opacity:1;fill:#069568;fill-opacity:1;stroke:none;stroke-width:2.9051559;stroke-linecap:butt;stroke-linejoin:bevel;stroke-miterlimit:4;stroke-dasharray:none;stroke-dashoffset:0;stroke-opacity:1;paint-order:fill markers stroke"
         d="m 250.08532,678.12165 c -4.25985,-2.08564 -9.40068,-6.03727 -11.98455,-9.21225 -8.64056,-10.61722 -8.78257,-11.99522 -8.78257,-85.21972 0,-78.17013 -0.45873,-75.11149 13.31735,-88.79792 4.94782,-4.91561 9.94089,-11.05685 11.09571,-13.64719 3.39811,-7.62215 2.65973,-16.79172 -2.20837,-27.42479 -6.6508,-14.52696 -18.01846,-46.13301 -18.01846,-50.09761 0,-0.27918 48.93879,-0.5076 108.75288,-0.5076 h 108.7529 l -2.72998,9.23292 c -3.75823,12.71048 -9.79564,28.77371 -15.20817,40.46313 -5.20284,11.23662 -6.00986,21.11265 -2.37964,29.1214 1.2284,2.71001 5.98265,8.46296 10.565,12.78433 13.50929,12.73989 12.87067,8.06834 12.41751,90.83501 -0.44271,80.85799 0.0694,76.87644 -11.20647,87.13218 -18.66962,16.98062 -51.65823,8.52261 -58.99347,-15.12545 -2.4077,-7.76213 -4.83967,-10.62014 -4.86181,-5.71354 -0.0211,4.67587 -6.04157,15.64299 -11.13683,20.28731 -7.59572,6.92348 -13.30495,8.88821 -25.82784,8.88821 -9.72945,0 -12.02214,-0.47315 -17.85027,-3.68386 -8.23816,-4.53839 -14.30422,-12.16711 -17.26512,-21.71276 l -2.25022,-7.25443 -3.05601,8.83947 c -1.94115,5.61472 -4.79762,10.55543 -7.82996,13.54314 -11.34617,11.17926 -29.20464,14.17687 -43.31161,7.27002 z m 22.15577,-91.73105 c 0.28518,-47.71421 -0.0139,-60.95108 -1.39542,-61.77307 -2.0654,-1.22885 -16.58406,-1.44343 -19.78452,-0.29241 -1.96934,0.70826 -2.20725,7.40963 -2.20725,62.17294 v 61.37913 l 11.51211,-0.37984 11.51212,-0.37983 z"
         id="path835"
         inkscape:connector-curvature="0" />
    </g>
  </g>
</svg>
